# xmcd CD database file generated by Grip 2.94
# 
# Track frame offsets:
#       150
#       11415
#       24312
#       44614
#       57814
#       79240
#       103997
#       122195
#       135597
#       151575
#       159667
#       182685
#       197197
#       210897
#       221307
#       239957
# 
# Disc length: 3364 seconds
# 
# Revision: 3
# Processed by: cddbd v1.4b42PL0 Copyright (c) Steve Scherf et al.
# Submitted via: Grip 2.94
# 
DISCID=d80d2210
DTITLE=Racky Thomas Band - Racky Thomas Band
DYEAR=1900
DGENRE=
TTITLE0=The Hustle Is On
TTITLE1=It Ain't Right
TTITLE2=Please Love Me
TTITLE3=Louisiana Blues
TTITLE4=That Will Never Do
TTITLE5=Gold Tailed Bird
TTITLE6=Rollin' and Tumblin'
TTITLE7=Walkin' to My Baby
TTITLE8=Can't Be Satisfied
TTITLE9=Linin' Track
TTITLE10=T-Bone Shuffle
TTITLE11=How Long Blues
TTITLE12=Big Road Blues
TTITLE13=Corrina
TTITLE14=Canned Heat Blues
TTITLE15=Fishin' Blues
EXTD=
EXTT0=
EXTT1=
EXTT2=
EXTT3=
EXTT4=
EXTT5=
EXTT6=
EXTT7=
EXTT8=
EXTT9=
EXTT10=
EXTT11=
EXTT12=
EXTT13=
EXTT14=
EXTT15=
PLAYORDER=
